<svg xmlns="http://www.w3.org/2000/svg" viewBox="0 0 571.08 269.05"><defs><style>.cls-1,.cls-2{fill:#6b85f2;}.cls-1{fill-rule:evenodd;}</style></defs><title>Asset 35</title><g id="Layer_2" data-name="Layer 2"><g id="Layer_1-2" data-name="Layer 1"><path class="cls-1" d="M29.76,150H17A17,17,0,0,0,0,167v85a17,17,0,0,0,17,17H153a17,17,0,0,0,17-17V167a17,17,0,0,0-17-17H140.28M68,196.79a17,17,0,1,1,26.23,14.28s1.66,10,3.53,21.85a6.36,6.36,0,0,1-6.38,6.37H78.64a6.36,6.36,0,0,1-6.38-6.37l3.53-21.85A17,17,0,0,1,68,196.79Z"/><path class="cls-2" d="M51.56,96.64q8.76,5.14,26,11.76-4.29,1.88-6.91,3.17a63.1,63.1,0,0,0-6,3.48,26,26,0,0,0-5.39,4.37,20.14,20.14,0,0,0-3.34,5.41,17.59,17.59,0,0,0-1.38,7v19.22a2.5,2.5,0,0,1-.86,2,3.12,3.12,0,0,1-2.19.78H33.16A3.12,3.12,0,0,1,31,153a2.5,2.5,0,0,1-.86-2V131.83Q30.11,110.36,51.56,96.64ZM127.72,0a3.19,3.19,0,0,1,2.2.77l30.5,27.47a2.53,2.53,0,0,1,.86,2,2.5,2.5,0,0,1-.91,1.93,3.09,3.09,0,0,1-2.14.82h-18.3q0,2.74,0,7.29t.1,7c0,1.61,0,3.69-.1,6.27a57.5,57.5,0,0,1-.47,6.09c-.22,1.49-.56,3.32-1,5.49a21.58,21.58,0,0,1-1.77,5.41q-1.09,2.15-2.71,5a24.45,24.45,0,0,1-3.82,5.06q-2.19,2.23-5.1,4.72A54.93,54.93,0,0,1,118.48,90q-8.87-5.07-26-11.67c2.86-1.26,5.17-2.32,6.91-3.18a66.31,66.31,0,0,0,6.06-3.47,25.61,25.61,0,0,0,5.38-4.38,19.5,19.5,0,0,0,3.34-5.41,17.55,17.55,0,0,0,1.38-7V33H97.22A3.12,3.12,0,0,1,95,32.18a2.5,2.5,0,0,1-.86-2,3.08,3.08,0,0,1,1-2.06L125.53.77A3.16,3.16,0,0,1,127.72,0ZM42.31,0A3.16,3.16,0,0,1,44.5.77L75,28.24a2.59,2.59,0,0,1-.05,3.9,3.11,3.11,0,0,1-2.14.82H54.51v22a18.86,18.86,0,0,0,1.43,7.46,16.94,16.94,0,0,0,4.29,5.93,38.57,38.57,0,0,0,5.86,4.37q3,1.8,7.39,3.87,5.91,2.75,16.3,6.69,6.3,2.49,10.59,4.25t10,4.63a83.24,83.24,0,0,1,9.54,5.49,75,75,0,0,1,7.91,6.36,35.48,35.48,0,0,1,6.53,7.72,39.61,39.61,0,0,1,4,9.14,37.34,37.34,0,0,1,1.58,11v19.22a2.53,2.53,0,0,1-.86,2,3.12,3.12,0,0,1-2.19.78H118.57a3.12,3.12,0,0,1-2.19-.78,2.53,2.53,0,0,1-.86-2V131.83a18.7,18.7,0,0,0-1.43-7.47,16.66,16.66,0,0,0-4.29-5.92,37.52,37.52,0,0,0-5.86-4.38,82.29,82.29,0,0,0-7.39-3.86q-5.91-2.74-16.3-6.7Q74,101,69.67,99.26t-10-4.64a83.89,83.89,0,0,1-9.53-5.49,74.85,74.85,0,0,1-7.92-6.35,35.75,35.75,0,0,1-6.53-7.73,39.84,39.84,0,0,1-4-9.14,37.32,37.32,0,0,1-1.57-11V33H11.8a3.12,3.12,0,0,1-2.19-.78,2.53,2.53,0,0,1-.86-2,3.05,3.05,0,0,1,1-2.06L40.12.77A3.16,3.16,0,0,1,42.31,0Z"/><path class="cls-2" d="M229.67,48.58H226V65.34a7,7,0,0,1-1.46,4.87,4.93,4.93,0,0,1-3.8,1.57,4.87,4.87,0,0,1-3.92-1.64,7.27,7.27,0,0,1-1.38-4.8V25.21c0-2.28.51-3.92,1.52-4.94s2.67-1.53,4.95-1.53h17.18a52.52,52.52,0,0,1,6.08.3,15.12,15.12,0,0,1,4.56,1.23A13.17,13.17,0,0,1,254,23.22a13,13,0,0,1,2.86,4.46,15,15,0,0,1,1,5.39,13,13,0,0,1-3.29,9.32q-3.28,3.49-10,5A19.22,19.22,0,0,1,250,51.75,43.92,43.92,0,0,1,254.55,58a44.68,44.68,0,0,1,3.13,5.94,11.72,11.72,0,0,1,1.13,3.64,3.74,3.74,0,0,1-.66,2,4.58,4.58,0,0,1-1.8,1.6,5.69,5.69,0,0,1-2.63.59,5.12,5.12,0,0,1-3-.84,7.92,7.92,0,0,1-2.08-2.12q-.87-1.27-2.37-3.77l-4.23-7a39.57,39.57,0,0,0-4.07-5.9,10.06,10.06,0,0,0-3.65-2.78A12.49,12.49,0,0,0,229.67,48.58Zm6.05-21.91H226V41h9.46a26.48,26.48,0,0,0,6.41-.66,7.52,7.52,0,0,0,4-2.24,6.42,6.42,0,0,0,1.37-4.36,6.57,6.57,0,0,0-4.16-6.3Q241.17,26.67,235.72,26.67Z"/><path class="cls-2" d="M290.79,66.3A29.78,29.78,0,0,1,284,70.41a19.07,19.07,0,0,1-7.38,1.37A14,14,0,0,1,270,70.3a10.77,10.77,0,0,1-4.36-4,10.37,10.37,0,0,1-1.53-5.48A9.76,9.76,0,0,1,266.67,54a12.56,12.56,0,0,1,6.93-3.77c.62-.15,2.15-.47,4.59-1s4.54-.95,6.28-1.36,3.64-.92,5.68-1.52a10.18,10.18,0,0,0-1.55-5.64c-.91-1.19-2.81-1.79-5.68-1.79a11.77,11.77,0,0,0-5.56,1,8.92,8.92,0,0,0-3.2,3.1c-.89,1.37-1.52,2.28-1.89,2.72a3.11,3.11,0,0,1-2.37.65,4.15,4.15,0,0,1-2.82-1,3.42,3.42,0,0,1-1.2-2.69,8.21,8.21,0,0,1,1.82-5,13,13,0,0,1,5.66-4,25.53,25.53,0,0,1,9.56-1.56A27,27,0,0,1,293,33.73a9.37,9.37,0,0,1,5.18,4.79,20.87,20.87,0,0,1,1.51,8.68c0,2.27,0,4.21,0,5.79s0,3.36-.05,5.3a19.34,19.34,0,0,0,.91,5.71,18.15,18.15,0,0,1,.9,3.83,3.57,3.57,0,0,1-1.4,2.72,4.72,4.72,0,0,1-3.19,1.23,4.29,4.29,0,0,1-2.95-1.41A20.63,20.63,0,0,1,290.79,66.3Zm-.64-14a49.8,49.8,0,0,1-6.21,1.65q-4.08.87-5.64,1.28a7.74,7.74,0,0,0-3,1.6,4.11,4.11,0,0,0-1.42,3.33,4.93,4.93,0,0,0,1.67,3.75,6.2,6.2,0,0,0,4.38,1.55,11.36,11.36,0,0,0,5.31-1.26,8.4,8.4,0,0,0,3.58-3.26q1.32-2.2,1.32-7.26Z"/><path class="cls-2" d="M318.36,37.66v1.18a16.9,16.9,0,0,1,5.6-5,15,15,0,0,1,7-1.58A14,14,0,0,1,337.82,34a10.63,10.63,0,0,1,4.51,4.73,11.31,11.31,0,0,1,1.25,3.85,39.78,39.78,0,0,1,.28,5.26V65.87a6.41,6.41,0,0,1-1.33,4.41,4.79,4.79,0,0,1-7,0,6.41,6.41,0,0,1-1.35-4.38V49.69a16.17,16.17,0,0,0-1.34-7.35c-.89-1.7-2.66-2.54-5.31-2.54a7.9,7.9,0,0,0-4.74,1.54,9,9,0,0,0-3.13,4.26c-.47,1.44-.71,4.15-.71,8.11V65.87a6.32,6.32,0,0,1-1.37,4.43,4.62,4.62,0,0,1-3.54,1.48,4.4,4.4,0,0,1-3.45-1.53,6.41,6.41,0,0,1-1.35-4.38V37.8a6.07,6.07,0,0,1,1.21-4.14,4.2,4.2,0,0,1,3.31-1.37,4.43,4.43,0,0,1,2.31.61,4.22,4.22,0,0,1,1.65,1.81A6.34,6.34,0,0,1,318.36,37.66Z"/><path class="cls-2" d="M380.15,66.23v-1a24.68,24.68,0,0,1-3.86,3.64,14.63,14.63,0,0,1-4.13,2.14,15.66,15.66,0,0,1-4.85.73,14.36,14.36,0,0,1-6.46-1.48,15.11,15.11,0,0,1-5.14-4.21,19.32,19.32,0,0,1-3.29-6.44,27.45,27.45,0,0,1-1.12-8q0-9.11,4.45-14.19a14.78,14.78,0,0,1,11.7-5.09,15.73,15.73,0,0,1,7.08,1.44,19.84,19.84,0,0,1,5.62,4.43V23.9a7.28,7.28,0,0,1,1.19-4.52,4.05,4.05,0,0,1,3.4-1.53,4.24,4.24,0,0,1,3.4,1.4,6.3,6.3,0,0,1,1.19,4.15V66.23a6,6,0,0,1-1.28,4.16,4.33,4.33,0,0,1-3.31,1.39,4.23,4.23,0,0,1-3.29-1.44A5.91,5.91,0,0,1,380.15,66.23ZM361.05,52a16.72,16.72,0,0,0,1.22,6.73,9.41,9.41,0,0,0,3.36,4.18,8.38,8.38,0,0,0,4.66,1.4A8.59,8.59,0,0,0,375,62.94a9.21,9.21,0,0,0,3.38-4.09A16.59,16.59,0,0,0,379.62,52a16.13,16.13,0,0,0-1.27-6.67A10.09,10.09,0,0,0,374.94,41a8.21,8.21,0,0,0-4.72-1.47,7.94,7.94,0,0,0-4.76,1.51,9.69,9.69,0,0,0-3.26,4.34A17.23,17.23,0,0,0,361.05,52Z"/><path class="cls-2" d="M435.43,52a23,23,0,0,1-1.35,8,17.71,17.71,0,0,1-3.91,6.29,17.17,17.17,0,0,1-6.12,4,21.57,21.57,0,0,1-8,1.41,21.18,21.18,0,0,1-7.93-1.42A17.53,17.53,0,0,1,398.1,60a22.9,22.9,0,0,1-1.34-8A23.16,23.16,0,0,1,398.11,44,17.62,17.62,0,0,1,402,37.7a17.19,17.19,0,0,1,6.12-4,23.23,23.23,0,0,1,15.94,0A17.27,17.27,0,0,1,434.1,44,23,23,0,0,1,435.43,52Zm-9.75,0q0-5.94-2.61-9.25a8.5,8.5,0,0,0-7-3.3A8.71,8.71,0,0,0,411,41a9.43,9.43,0,0,0-3.35,4.36A17.77,17.77,0,0,0,406.51,52a17.46,17.46,0,0,0,1.16,6.66A9.53,9.53,0,0,0,411,63,8.61,8.61,0,0,0,416,64.56a8.48,8.48,0,0,0,7-3.33C424.81,59,425.68,56,425.68,52Z"/><path class="cls-2" d="M475.38,52.75V65.66A6.61,6.61,0,0,1,474,70.25a4.69,4.69,0,0,1-3.66,1.53,4.59,4.59,0,0,1-3.58-1.53,6.71,6.71,0,0,1-1.36-4.59V50.18a51,51,0,0,0-.25-5.69,6.14,6.14,0,0,0-1.36-3.32,4.29,4.29,0,0,0-3.48-1.3q-4.77,0-6.28,3.27t-1.51,9.39V65.66a6.71,6.71,0,0,1-1.37,4.57,5,5,0,0,1-7.22,0,6.56,6.56,0,0,1-1.41-4.57V37.88a6.11,6.11,0,0,1,1.26-4.17,4.27,4.27,0,0,1,3.33-1.42,4.51,4.51,0,0,1,3.33,1.33,5,5,0,0,1,1.33,3.69v.92a17,17,0,0,1,5.41-4.45,14.35,14.35,0,0,1,6.4-1.42,12.86,12.86,0,0,1,6.3,1.46,11.43,11.43,0,0,1,4.34,4.41,16.86,16.86,0,0,1,5.26-4.43,13.48,13.48,0,0,1,6.23-1.44,14.1,14.1,0,0,1,6.86,1.57,9.88,9.88,0,0,1,4.31,4.48c.83,1.75,1.24,4.52,1.24,8.29v19a6.66,6.66,0,0,1-1.38,4.59,4.73,4.73,0,0,1-3.67,1.53,4.67,4.67,0,0,1-3.61-1.55,6.56,6.56,0,0,1-1.4-4.57V49.33a37,37,0,0,0-.27-5,5.78,5.78,0,0,0-1.44-3.16,4.57,4.57,0,0,0-3.56-1.28A6.54,6.54,0,0,0,479.13,41a7.7,7.7,0,0,0-2.68,3.05Q475.39,46.52,475.38,52.75Z"/><path class="cls-2" d="M235.72,138H226v14.77a6.92,6.92,0,0,1-1.49,4.8,5.27,5.27,0,0,1-7.62,0,6.9,6.9,0,0,1-1.45-4.75v-40.2q0-3.49,1.6-5c1.06-1,2.76-1.5,5.08-1.5h13.56a35.34,35.34,0,0,1,9.25.93,13.8,13.8,0,0,1,5.53,3,13.44,13.44,0,0,1,3.54,5,18,18,0,0,1,1.21,6.73q0,8-4.91,12.07T235.72,138Zm-2.56-23.9H226V130h7.12a21.29,21.29,0,0,0,6.24-.78,7.21,7.21,0,0,0,3.82-2.56,7.64,7.64,0,0,0,1.32-4.66,7.92,7.92,0,0,0-2-5.62C241,114.87,237.88,114.1,233.16,114.1Z"/><path class="cls-2" d="M285.17,153.73a30.51,30.51,0,0,1-6.82,4.11,19.07,19.07,0,0,1-7.38,1.37,14,14,0,0,1-6.56-1.48,10.84,10.84,0,0,1-4.36-4,10.4,10.4,0,0,1-1.53-5.48,9.8,9.8,0,0,1,2.53-6.8,12.62,12.62,0,0,1,6.93-3.77q.93-.21,4.59-1c2.44-.5,4.54-.95,6.28-1.37s3.64-.92,5.68-1.51A10.18,10.18,0,0,0,283,128.2q-1.38-1.78-5.68-1.79a11.77,11.77,0,0,0-5.56,1,9,9,0,0,0-3.2,3.09,31.51,31.51,0,0,1-1.89,2.72,3.1,3.1,0,0,1-2.37.66,4.11,4.11,0,0,1-2.82-1,3.4,3.4,0,0,1-1.2-2.68,8.21,8.21,0,0,1,1.82-5,13,13,0,0,1,5.65-4,25.63,25.63,0,0,1,9.57-1.56,27,27,0,0,1,10.07,1.51,9.39,9.39,0,0,1,5.18,4.78,21.1,21.1,0,0,1,1.51,8.68c0,2.28,0,4.21,0,5.8s0,3.36-.05,5.3a19.34,19.34,0,0,0,.91,5.71,18.15,18.15,0,0,1,.9,3.83,3.6,3.6,0,0,1-1.4,2.72,4.72,4.72,0,0,1-3.19,1.23,4.29,4.29,0,0,1-2.95-1.41A20.94,20.94,0,0,1,285.17,153.73Zm-.64-14a49.8,49.8,0,0,1-6.21,1.65q-4.08.87-5.64,1.28a7.74,7.74,0,0,0-3,1.6,4.1,4.1,0,0,0-1.42,3.33,4.93,4.93,0,0,0,1.67,3.75,6.19,6.19,0,0,0,4.38,1.55,11.25,11.25,0,0,0,5.31-1.27,8.38,8.38,0,0,0,3.58-3.25q1.32-2.2,1.32-7.26Z"/><path class="cls-2" d="M335.18,146.51a11.25,11.25,0,0,1-7.73,11.22,26,26,0,0,1-9.31,1.48,22.63,22.63,0,0,1-9-1.61,13.05,13.05,0,0,1-5.52-4,8.07,8.07,0,0,1-1.77-4.82A3.72,3.72,0,0,1,303,146a3.91,3.91,0,0,1,2.89-1.14,3.34,3.34,0,0,1,2.34.75,8.19,8.19,0,0,1,1.57,2.1,10.71,10.71,0,0,0,3.57,3.88,10.84,10.84,0,0,0,5.68,1.28,8.15,8.15,0,0,0,4.78-1.3,3.66,3.66,0,0,0,1.87-3,4.06,4.06,0,0,0-1.94-3.74,24,24,0,0,0-6.38-2.24,53.23,53.23,0,0,1-8.17-2.61,13.45,13.45,0,0,1-5-3.61,8.27,8.27,0,0,1-1.89-5.52,9.67,9.67,0,0,1,1.75-5.51,11.9,11.9,0,0,1,5.14-4.14,19.51,19.51,0,0,1,8.2-1.55,27,27,0,0,1,6.77.78,16.75,16.75,0,0,1,5,2.1,10.37,10.37,0,0,1,3.06,2.92,5.68,5.68,0,0,1,1.05,3.13,3.66,3.66,0,0,1-1.12,2.74,4.45,4.45,0,0,1-3.19,1.06,3.9,3.9,0,0,1-2.54-.85,16.64,16.64,0,0,1-2.4-2.56,8.8,8.8,0,0,0-2.6-2.28,8.16,8.16,0,0,0-4.05-.85A7.92,7.92,0,0,0,313,127a3.27,3.27,0,0,0-1.74,2.79,3,3,0,0,0,1.28,2.51A10.67,10.67,0,0,0,316,134c1.45.42,3.44,1,6,1.56a32.15,32.15,0,0,1,7.38,2.64,12.29,12.29,0,0,1,4.34,3.61A8,8,0,0,1,335.18,146.51Z"/><path class="cls-2" d="M374.67,146.51a11.27,11.27,0,0,1-7.74,11.22,26,26,0,0,1-9.3,1.48,22.6,22.6,0,0,1-9-1.61,13.05,13.05,0,0,1-5.52-4,8.09,8.09,0,0,1-1.78-4.82,3.73,3.73,0,0,1,1.14-2.74,3.9,3.9,0,0,1,2.88-1.14,3.35,3.35,0,0,1,2.35.75,8.19,8.19,0,0,1,1.57,2.1,10.63,10.63,0,0,0,3.57,3.88,10.84,10.84,0,0,0,5.68,1.28,8.17,8.17,0,0,0,4.78-1.3,3.68,3.68,0,0,0,1.87-3,4.06,4.06,0,0,0-1.94-3.74,24,24,0,0,0-6.39-2.24,53.43,53.43,0,0,1-8.16-2.61,13.37,13.37,0,0,1-5-3.61,8.27,8.27,0,0,1-1.89-5.52,9.73,9.73,0,0,1,1.74-5.51,12,12,0,0,1,5.14-4.14,19.58,19.58,0,0,1,8.2-1.55,27,27,0,0,1,6.78.78,16.86,16.86,0,0,1,5,2.1,10.37,10.37,0,0,1,3.06,2.92,5.77,5.77,0,0,1,1.05,3.13,3.63,3.63,0,0,1-1.13,2.74,4.41,4.41,0,0,1-3.18,1.06,3.88,3.88,0,0,1-2.54-.85,16.64,16.64,0,0,1-2.4-2.56,8.93,8.93,0,0,0-2.6-2.28,8.2,8.2,0,0,0-4.06-.85,7.9,7.9,0,0,0-4.37,1.12,3.29,3.29,0,0,0-1.75,2.79,3,3,0,0,0,1.28,2.51A10.83,10.83,0,0,0,355.5,134c1.44.42,3.43,1,6,1.56a32.15,32.15,0,0,1,7.38,2.64,12.2,12.2,0,0,1,4.34,3.61A8,8,0,0,1,374.67,146.51Z"/><path class="cls-2" d="M387.12,125.77l6.33,21.7,5.77-20.17c.61-2.11,1.07-3.56,1.37-4.33a5.53,5.53,0,0,1,1.67-2.2,5,5,0,0,1,3.36-1,5.07,5.07,0,0,1,3.4,1,6,6,0,0,1,1.72,2.27c.34.82.8,2.24,1.39,4.26l5.76,20.17,6.41-21.7c.42-1.57.77-2.7,1-3.4a4.47,4.47,0,0,1,1.32-1.85,3.9,3.9,0,0,1,2.66-.8,4.27,4.27,0,0,1,3,1.21,3.78,3.78,0,0,1,1.28,2.84,14.68,14.68,0,0,1-1.11,4.52l-7.93,23.27c-.69,2-1.22,3.39-1.6,4.27a6.33,6.33,0,0,1-1.8,2.34,5,5,0,0,1-3.36,1,5.09,5.09,0,0,1-3.47-1.11,6.56,6.56,0,0,1-1.86-2.7c-.41-1.07-.85-2.46-1.32-4.16l-5.55-18.93-5.37,18.93a23.24,23.24,0,0,1-2.31,6c-.83,1.33-2.29,2-4.38,2a5.47,5.47,0,0,1-2.72-.63A5.21,5.21,0,0,1,389,156.8a13.18,13.18,0,0,1-1.31-2.74c-.38-1.05-.68-1.89-.89-2.5l-7.87-23.27a16.51,16.51,0,0,1-1.17-4.52A3.89,3.89,0,0,1,379,121a4.16,4.16,0,0,1,3.06-1.24c1.61,0,2.7.45,3.27,1.37A20.16,20.16,0,0,1,387.12,125.77Z"/><path class="cls-2" d="M475.7,139.46a23,23,0,0,1-1.35,8,17.71,17.71,0,0,1-3.91,6.29,17.3,17.3,0,0,1-6.12,4,21.57,21.57,0,0,1-8,1.41,21,21,0,0,1-7.93-1.43,17.48,17.48,0,0,1-10-10.33,22.9,22.9,0,0,1-1.34-8,23.16,23.16,0,0,1,1.35-8.07,17.68,17.68,0,0,1,3.88-6.26,17.14,17.14,0,0,1,6.12-4,23.23,23.23,0,0,1,15.94,0,17.27,17.27,0,0,1,10.05,10.32A23,23,0,0,1,475.7,139.46Zm-9.74,0c0-4-.88-7-2.62-9.25a8.51,8.51,0,0,0-7-3.31,8.72,8.72,0,0,0-5,1.48,9.38,9.38,0,0,0-3.35,4.36,17.77,17.77,0,0,0-1.17,6.72,17.56,17.56,0,0,0,1.16,6.65,9.5,9.5,0,0,0,3.31,4.36,9.15,9.15,0,0,0,12.09-1.81C465.08,146.44,466,143.37,466,139.46Z"/><path class="cls-2" d="M493,145.19v8.11a6.24,6.24,0,0,1-1.39,4.43,4.63,4.63,0,0,1-3.52,1.48,4.43,4.43,0,0,1-3.45-1.5,6.38,6.38,0,0,1-1.35-4.41v-27q0-6.54,4.73-6.54a4,4,0,0,1,3.49,1.53,8.43,8.43,0,0,1,1.17,4.52,16.68,16.68,0,0,1,3.58-4.52,7.38,7.38,0,0,1,4.89-1.53,12.51,12.51,0,0,1,5.94,1.53q2.88,1.53,2.88,4a3.86,3.86,0,0,1-1.23,2.94,3.8,3.8,0,0,1-2.65,1.15,12.07,12.07,0,0,1-2.58-.65,11.9,11.9,0,0,0-3.61-.66,5.25,5.25,0,0,0-3.48,1.12,7.06,7.06,0,0,0-2.1,3.32,22.7,22.7,0,0,0-1,5.25C493.08,139.8,493,142.27,493,145.19Z"/><path class="cls-2" d="M540,153.66v-1a25.23,25.23,0,0,1-3.86,3.65,14.63,14.63,0,0,1-4.13,2.14,15.68,15.68,0,0,1-4.86.73,14.35,14.35,0,0,1-6.45-1.48,15.17,15.17,0,0,1-5.15-4.22,19.31,19.31,0,0,1-3.29-6.44,27.67,27.67,0,0,1-1.12-8q0-9.1,4.45-14.19a14.77,14.77,0,0,1,11.71-5.09,15.71,15.71,0,0,1,7.07,1.44,19.73,19.73,0,0,1,5.63,4.43V111.32a7.23,7.23,0,0,1,1.19-4.52,4,4,0,0,1,3.39-1.53,4.2,4.2,0,0,1,3.4,1.41,6.23,6.23,0,0,1,1.19,4.14v42.84a5.92,5.92,0,0,1-1.28,4.16,4.3,4.3,0,0,1-3.31,1.39,4.23,4.23,0,0,1-3.29-1.45A6,6,0,0,1,540,153.66Zm-19.11-14.27a16.53,16.53,0,0,0,1.23,6.72,9.36,9.36,0,0,0,3.36,4.18,8.29,8.29,0,0,0,4.66,1.41,8.6,8.6,0,0,0,4.68-1.34,9.1,9.1,0,0,0,3.38-4.09,16.52,16.52,0,0,0,1.26-6.88,16.14,16.14,0,0,0-1.26-6.67,10,10,0,0,0-3.42-4.27,8.16,8.16,0,0,0-4.71-1.47,8,8,0,0,0-4.77,1.51,9.67,9.67,0,0,0-3.25,4.34A17.23,17.23,0,0,0,520.88,139.39Z"/><path class="cls-2" d="M263.11,224.54v10a10.48,10.48,0,0,1-.39,3.18,5,5,0,0,1-1.44,2.15,13.54,13.54,0,0,1-2.69,1.85,42,42,0,0,1-9.1,3.74,36.89,36.89,0,0,1-9.54,1.17,30.93,30.93,0,0,1-11-1.85,23.07,23.07,0,0,1-8.43-5.37,23.67,23.67,0,0,1-5.35-8.54,31.78,31.78,0,0,1-1.87-11.2,32.75,32.75,0,0,1,1.82-11.14,22.81,22.81,0,0,1,5.33-8.57,23.35,23.35,0,0,1,8.58-5.39,32.7,32.7,0,0,1,11.45-1.87,28.31,28.31,0,0,1,9.32,1.41,20.24,20.24,0,0,1,6.58,3.54,15.69,15.69,0,0,1,3.81,4.51,9.22,9.22,0,0,1,1.28,4.24,4.47,4.47,0,0,1-1.48,3.39,4.93,4.93,0,0,1-3.54,1.41,4.77,4.77,0,0,1-2.18-.53,5.11,5.11,0,0,1-1.77-1.5,41.26,41.26,0,0,0-3.3-4.62,10.66,10.66,0,0,0-3.65-2.63,13.78,13.78,0,0,0-5.85-1.07,16.18,16.18,0,0,0-6.55,1.26,13.57,13.57,0,0,0-4.93,3.66,16.82,16.82,0,0,0-3.13,5.89,26,26,0,0,0-1.08,7.72q0,9.18,4.21,14.13c2.82,3.29,6.73,4.94,11.76,4.94a24.05,24.05,0,0,0,6.89-1,34.52,34.52,0,0,0,6.52-2.74v-8.47h-8.18a8.84,8.84,0,0,1-4.46-.89,3.21,3.21,0,0,1-1.51-3,3.72,3.72,0,0,1,1.26-2.88,4.92,4.92,0,0,1,3.43-1.14h12a15.45,15.45,0,0,1,3.74.39,4.24,4.24,0,0,1,2.47,1.74A7.23,7.23,0,0,1,263.11,224.54Z"/><path class="cls-2" d="M299.61,229.27h-19a13,13,0,0,0,1.34,5.84,8.93,8.93,0,0,0,8.2,5.08,11.34,11.34,0,0,0,3.18-.41,10.29,10.29,0,0,0,2.79-1.28,21.8,21.8,0,0,0,2.49-1.86c.76-.67,1.75-1.57,3-2.71a3.21,3.21,0,0,1,2.13-.64,3.5,3.5,0,0,1,2.42.82,2.92,2.92,0,0,1,.92,2.31,6.28,6.28,0,0,1-1,3.08,12.26,12.26,0,0,1-3.11,3.38,17.69,17.69,0,0,1-5.23,2.68,22.29,22.29,0,0,1-7.24,1.07q-9.36,0-14.55-5.33t-5.19-14.48a24,24,0,0,1,1.28-8,17.61,17.61,0,0,1,3.73-6.31,16.18,16.18,0,0,1,6.05-4,21.66,21.66,0,0,1,8-1.41,18.79,18.79,0,0,1,9.76,2.41,15.78,15.78,0,0,1,6.1,6.2,16.26,16.26,0,0,1,2,7.76q0,3.66-2.1,4.75A13.1,13.1,0,0,1,299.61,229.27Zm-19-5.51h17.61c-.24-3.32-1.13-5.81-2.68-7.45a8.05,8.05,0,0,0-6.14-2.48,7.78,7.78,0,0,0-6,2.51C281.89,218,280.94,220.48,280.61,223.76Z"/><path class="cls-2" d="M324.62,212.52v1.17a17,17,0,0,1,5.6-5,14.88,14.88,0,0,1,7-1.58,13.92,13.92,0,0,1,6.87,1.67,10.58,10.58,0,0,1,4.51,4.73,11,11,0,0,1,1.25,3.84,39.88,39.88,0,0,1,.28,5.26v18.08a6.44,6.44,0,0,1-1.33,4.41,4.8,4.8,0,0,1-7,0,6.4,6.4,0,0,1-1.35-4.37V224.54a16.19,16.19,0,0,0-1.34-7.35q-1.33-2.53-5.31-2.54a7.91,7.91,0,0,0-4.74,1.55,9,9,0,0,0-3.13,4.25q-.71,2.18-.71,8.11v12.17a6.29,6.29,0,0,1-1.37,4.43,4.61,4.61,0,0,1-3.54,1.47,4.4,4.4,0,0,1-3.45-1.53,6.4,6.4,0,0,1-1.35-4.37V212.66a6.12,6.12,0,0,1,1.21-4.15,4.2,4.2,0,0,1,3.31-1.36,4.52,4.52,0,0,1,2.31.6,4.37,4.37,0,0,1,1.66,1.81A6.51,6.51,0,0,1,324.62,212.52Z"/><path class="cls-2" d="M386.91,229.27h-19a13,13,0,0,0,1.34,5.84,8.93,8.93,0,0,0,8.2,5.08,11.34,11.34,0,0,0,3.18-.41,10.29,10.29,0,0,0,2.79-1.28,21.8,21.8,0,0,0,2.49-1.86c.76-.67,1.75-1.57,3-2.71a3.21,3.21,0,0,1,2.13-.64,3.5,3.5,0,0,1,2.42.82,2.92,2.92,0,0,1,.92,2.31,6.28,6.28,0,0,1-1,3.08,12.26,12.26,0,0,1-3.11,3.38,17.69,17.69,0,0,1-5.23,2.68,22.29,22.29,0,0,1-7.24,1.07q-9.36,0-14.55-5.33T358,226.82a24,24,0,0,1,1.28-8,17.61,17.61,0,0,1,3.73-6.31,16.18,16.18,0,0,1,6.05-4,21.66,21.66,0,0,1,8-1.41,18.79,18.79,0,0,1,9.76,2.41,15.78,15.78,0,0,1,6.1,6.2,16.26,16.26,0,0,1,2,7.76q0,3.66-2.1,4.75A13.1,13.1,0,0,1,386.91,229.27Zm-19-5.51h17.61c-.24-3.32-1.13-5.81-2.68-7.45a8.05,8.05,0,0,0-6.14-2.48,7.78,7.78,0,0,0-6,2.51C369.19,218,368.24,220.48,367.91,223.76Z"/><path class="cls-2" d="M412.74,232.62v8.11a6.29,6.29,0,0,1-1.39,4.43,4.64,4.64,0,0,1-3.52,1.47,4.46,4.46,0,0,1-3.45-1.49,6.35,6.35,0,0,1-1.36-4.41v-27q0-6.54,4.73-6.54a3.94,3.94,0,0,1,3.49,1.52,8.54,8.54,0,0,1,1.18,4.52,17,17,0,0,1,3.57-4.52,7.37,7.37,0,0,1,4.89-1.52,12.5,12.5,0,0,1,5.94,1.52c1.92,1,2.89,2.38,2.89,4.06a3.84,3.84,0,0,1-1.23,2.93,3.77,3.77,0,0,1-2.65,1.16,12.07,12.07,0,0,1-2.58-.66,12,12,0,0,0-3.61-.66,5.27,5.27,0,0,0-3.49,1.13,7.16,7.16,0,0,0-2.1,3.32,23.13,23.13,0,0,0-1,5.25Q412.74,228.25,412.74,232.62Z"/><path class="cls-2" d="M457.74,241.15a29.78,29.78,0,0,1-6.82,4.11,18.89,18.89,0,0,1-7.38,1.37,14,14,0,0,1-6.56-1.47,10.8,10.8,0,0,1-4.36-4,10.37,10.37,0,0,1-1.53-5.47,9.78,9.78,0,0,1,2.53-6.8,12.62,12.62,0,0,1,6.93-3.77q.93-.21,4.59-1t6.28-1.37q2.63-.63,5.68-1.51a10.18,10.18,0,0,0-1.55-5.64c-.91-1.2-2.81-1.8-5.67-1.8a11.91,11.91,0,0,0-5.57,1,9,9,0,0,0-3.2,3.1c-.89,1.37-1.52,2.28-1.89,2.72a3.1,3.1,0,0,1-2.37.66,4.11,4.11,0,0,1-2.82-1.05,3.42,3.42,0,0,1-1.2-2.69,8.25,8.25,0,0,1,1.82-5,12.93,12.93,0,0,1,5.66-4,25.54,25.54,0,0,1,9.57-1.57,27,27,0,0,1,10.06,1.52,9.35,9.35,0,0,1,5.18,4.78,20.9,20.9,0,0,1,1.51,8.68c0,2.28,0,4.21,0,5.8s0,3.35-.05,5.3a19.34,19.34,0,0,0,.91,5.71,18.11,18.11,0,0,1,.9,3.82,3.54,3.54,0,0,1-1.4,2.72,4.72,4.72,0,0,1-3.19,1.23,4.32,4.32,0,0,1-2.95-1.4A21,21,0,0,1,457.74,241.15Zm-.64-14.05a49.5,49.5,0,0,1-6.21,1.66c-2.72.58-4.6,1-5.64,1.28a7.61,7.61,0,0,0-3,1.6,4.08,4.08,0,0,0-1.42,3.32,5,5,0,0,0,1.67,3.76,6.2,6.2,0,0,0,4.38,1.54,11.43,11.43,0,0,0,5.32-1.26,8.48,8.48,0,0,0,3.57-3.25q1.32-2.2,1.32-7.26Z"/><path class="cls-2" d="M475.2,208h1.07v-5.84c0-1.56,0-2.79.13-3.68a5.36,5.36,0,0,1,.69-2.29,4.26,4.26,0,0,1,1.64-1.62,4.57,4.57,0,0,1,2.38-.62,4.8,4.8,0,0,1,3.34,1.38,4.11,4.11,0,0,1,1.27,2.26,21.44,21.44,0,0,1,.26,3.79V208h3.56a4.52,4.52,0,0,1,3.15,1,3.23,3.23,0,0,1,1.08,2.5,2.8,2.8,0,0,1-1.54,2.74,10,10,0,0,1-4.43.79H486v17.85a30.57,30.57,0,0,0,.16,3.51,3.53,3.53,0,0,0,.86,2,2.91,2.91,0,0,0,2.26.77,12.28,12.28,0,0,0,2.31-.31,12.07,12.07,0,0,1,2.27-.3,3,3,0,0,1,2.12.94,3.17,3.17,0,0,1,.94,2.33,3.9,3.9,0,0,1-2.56,3.6,17.28,17.28,0,0,1-7.36,1.24q-4.56,0-6.9-1.53a7.1,7.1,0,0,1-3.08-4.23,28.52,28.52,0,0,1-.73-7.22V215H475a4.63,4.63,0,0,1-3.2-1,3.24,3.24,0,0,1-1.1-2.53,3.13,3.13,0,0,1,1.15-2.5A5,5,0,0,1,475.2,208Z"/><path class="cls-2" d="M536.82,226.89a23,23,0,0,1-1.35,8,17.77,17.77,0,0,1-3.92,6.3,17.26,17.26,0,0,1-6.12,4,21.76,21.76,0,0,1-8,1.4,21,21,0,0,1-7.93-1.42,17.51,17.51,0,0,1-10-10.34,22.8,22.8,0,0,1-1.33-8,23.26,23.26,0,0,1,1.35-8.08,17.48,17.48,0,0,1,3.88-6.26,17.08,17.08,0,0,1,6.12-4,23.2,23.2,0,0,1,15.93,0,17.15,17.15,0,0,1,10.05,10.31A23.05,23.05,0,0,1,536.82,226.89Zm-9.75,0c0-4-.87-7-2.61-9.25a8.5,8.5,0,0,0-7-3.31,8.68,8.68,0,0,0-5,1.48,9.33,9.33,0,0,0-3.34,4.35,17.86,17.86,0,0,0-1.17,6.73,17.6,17.6,0,0,0,1.15,6.65,9.57,9.57,0,0,0,3.31,4.36,8.6,8.6,0,0,0,5.07,1.51,8.49,8.49,0,0,0,7-3.33C526.2,233.87,527.07,230.8,527.07,226.89Z"/><path class="cls-2" d="M554.11,232.62v8.11a6.24,6.24,0,0,1-1.39,4.43,4.63,4.63,0,0,1-3.52,1.47,4.46,4.46,0,0,1-3.45-1.49,6.39,6.39,0,0,1-1.35-4.41v-27c0-4.36,1.57-6.54,4.73-6.54a3.93,3.93,0,0,1,3.48,1.52,8.36,8.36,0,0,1,1.18,4.52,17,17,0,0,1,3.57-4.52,7.37,7.37,0,0,1,4.89-1.52,12.57,12.57,0,0,1,6,1.52c1.92,1,2.88,2.38,2.88,4.06a3.84,3.84,0,0,1-1.23,2.93,3.77,3.77,0,0,1-2.65,1.16,12.07,12.07,0,0,1-2.58-.66,12,12,0,0,0-3.61-.66,5.28,5.28,0,0,0-3.49,1.13,7.16,7.16,0,0,0-2.1,3.32,23.69,23.69,0,0,0-1,5.25Q554.11,228.25,554.11,232.62Z"/></g></g></svg>